<?xml version="1.0" standalone="no"?>
<!DOCTYPE svg PUBLIC "-//W3C//DTD SVG 20010904//EN"
 "http://www.w3.org/TR/2001/REC-SVG-20010904/DTD/svg10.dtd">
<svg version="1.0" xmlns="http://www.w3.org/2000/svg"
 width="500.000000pt" height="500.000000pt" viewBox="0 0 500.000000 500.000000"
 preserveAspectRatio="xMidYMid meet">

<g transform="translate(0.000000,500.000000) scale(0.100000,-0.100000)"
fill="#000000" stroke="none">
<path d="M2519 4272 c-12 -8 -90 -54 -173 -102 -239 -137 -533 -308 -761 -440
-115 -68 -249 -145 -297 -173 l-88 -49 0 -749 0 -749 49 -24 c27 -14 136 -75
242 -137 107 -61 379 -217 604 -346 226 -129 414 -239 420 -244 17 -16 34 -10
133 49 177 107 265 158 412 240 80 44 240 135 355 202 383 223 430 250 443
250 9 0 12 150 12 718 0 394 3 733 6 753 6 35 5 37 -47 66 -107 60 -490 283
-729 425 -135 80 -315 186 -402 236 -149 86 -157 90 -179 74z m186 -274 c187
-105 418 -240 640 -373 94 -56 212 -125 263 -154 l92 -53 0 -206 c0 -114 3
-405 6 -647 3 -242 1 -445 -3 -450 -7 -10 -409 -240 -853 -490 -85 -48 -188
-108 -229 -133 l-74 -46 -66 35 c-164 88 -515 288 -722 412 -125 74 -260 154
-301 176 l-75 41 -6 68 c-4 37 -7 330 -7 652 l1 585 257 151 c389 229 913 524
922 519 3 -2 73 -41 155 -87z"/>
<path d="M2493 3936 c-47 -21 -75 -71 -70 -122 6 -54 32 -90 83 -109 37 -15
44 -15 82 1 59 23 82 56 82 115 0 42 -5 55 -33 85 -38 42 -93 53 -144 30z"/>
<path d="M2233 3798 l-103 -60 20 -25 c11 -14 20 -32 20 -40 0 -8 3 -13 8 -11
52 24 151 79 159 90 6 7 8 33 4 60 l-6 46 -102 -60z"/>
<path d="M2754 3801 l-2 -56 72 -40 c39 -22 73 -41 76 -42 3 -2 13 15 22 37
l16 40 -26 19 c-15 10 -56 36 -92 58 l-65 40 -1 -56z"/>
<path d="M2998 3710 c-26 -16 -41 -72 -27 -104 16 -34 48 -42 87 -22 49 25 56
72 17 111 -25 26 -49 31 -77 15z"/>
<path d="M1996 3688 c-9 -12 -16 -33 -16 -46 0 -30 42 -72 73 -72 30 0 67 39
67 71 0 59 -92 93 -124 47z"/>
<path d="M2280 3609 c-63 -38 -195 -113 -292 -166 l-177 -98 -1 -54 c0 -44 3
-52 15 -47 9 3 129 70 268 150 139 79 285 161 324 182 72 39 88 54 56 54 -9 0
-30 11 -47 23 l-31 24 -115 -68z"/>
<path d="M2670 3650 c-14 -11 -30 -20 -37 -20 -33 0 -16 -22 44 -56 38 -20
116 -66 175 -101 173 -103 401 -233 410 -233 4 0 8 22 8 49 l0 49 -67 40 c-38
22 -117 68 -178 102 -60 35 -128 75 -150 90 -42 28 -169 100 -176 100 -2 0
-15 -9 -29 -20z"/>
<path d="M1855 3584 c-33 -19 -88 -49 -121 -66 l-62 -31 47 -32 c44 -30 47
-31 71 -15 14 9 60 36 103 59 42 23 77 46 77 50 0 4 -9 16 -20 26 -11 10 -20
24 -20 32 0 18 -7 16 -75 -23z"/>
<path d="M3150 3609 c0 -7 -9 -23 -21 -35 -12 -12 -18 -27 -15 -32 3 -6 51
-35 106 -66 l101 -56 39 32 c22 17 39 32 37 33 -14 11 -216 125 -229 130 -12
5 -18 2 -18 -6z"/>
<path d="M2465 3448 c-38 -21 -75 -61 -86 -95 -6 -19 -9 -37 -6 -40 3 -2 24
-7 46 -10 32 -4 41 -2 41 9 0 25 44 58 78 58 23 0 36 -7 48 -25 24 -36 6 -72
-46 -92 -33 -13 -40 -21 -40 -42 0 -24 -17 -35 -205 -131 -372 -188 -405 -212
-419 -305 l-7 -40 176 3 175 3 0 -153 0 -153 328 0 329 0 -5 153 -5 152 177 0
176 0 -6 43 c-3 23 -14 53 -23 67 -18 26 -216 140 -443 257 -71 36 -128 68
-128 72 0 3 14 26 30 50 37 54 44 80 36 125 -7 37 -47 83 -84 97 -32 12 -113
11 -137 -3z m282 -460 c111 -56 215 -112 230 -124 l28 -23 -457 -1 c-255 0
-458 4 -458 9 0 5 75 48 168 96 92 48 192 100 222 116 30 16 57 29 60 29 2 0
95 -46 207 -102z"/>
<path d="M1531 3397 c-33 -20 -50 -55 -51 -105 0 -79 50 -132 125 -132 65 0
125 63 125 133 0 28 -8 46 -33 74 -29 31 -41 37 -88 40 -34 2 -63 -2 -78 -10z"/>
<path d="M3436 3400 c-40 -13 -65 -38 -77 -80 -32 -106 74 -193 176 -144 52
24 82 90 66 144 -21 70 -90 104 -165 80z"/>
<path d="M1698 3100 l-38 -15 0 -320 1 -320 38 -17 c20 -10 40 -18 43 -18 7 0
7 617 -1 665 l-6 41 -37 -16z"/>
<path d="M3338 3062 c-1 -31 -2 -193 0 -359 l3 -304 26 21 c14 11 33 20 43 20
18 0 17 -19 11 500 l-1 145 -39 16 -39 17 -4 -56z"/>
<path d="M3570 3105 c-14 -8 -33 -16 -42 -19 -16 -5 -18 -19 -18 -108 l0 -103
45 3 45 4 0 119 c0 65 -1 119 -2 118 -2 0 -14 -7 -28 -14z"/>
<path d="M1480 2997 l0 -115 45 0 45 1 0 102 0 103 -27 4 c-16 3 -36 9 -45 13
-17 7 -18 -2 -18 -108z"/>
<path d="M1480 2800 c-29 -29 -26 -74 7 -99 30 -24 58 -20 86 11 35 42 6 108
-48 108 -14 0 -34 -9 -45 -20z"/>
<path d="M3520 2800 c-25 -25 -26 -72 -2 -93 40 -37 112 -6 112 47 0 27 -42
66 -71 66 -11 0 -28 -9 -39 -20z"/>
<path d="M1518 2632 l-38 -3 0 -105 0 -105 30 16 c16 8 36 15 45 15 12 0 15
15 15 89 0 50 -3 91 -7 93 -5 2 -25 2 -45 0z"/>
<path d="M3516 2605 c-3 -11 -6 -49 -6 -85 l0 -65 44 -16 44 -16 6 51 c3 28 6
74 6 103 l0 51 -44 -1 c-36 -2 -46 -6 -50 -22z"/>
<path d="M2350 2287 c0 -91 2 -106 20 -122 17 -15 24 -16 45 -7 24 11 25 14
25 122 l0 110 -45 0 -45 0 0 -103z"/>
<path d="M2665 2285 c3 -108 12 -135 44 -135 34 0 41 22 41 132 l0 108 -44 0
-45 0 4 -105z"/>
<path d="M1523 2350 c-57 -34 -69 -135 -22 -194 11 -14 38 -30 60 -36 33 -9
46 -8 82 8 59 27 79 53 85 112 3 36 0 57 -13 76 -34 52 -133 70 -192 34z"/>
<path d="M3430 2359 c-39 -16 -59 -39 -71 -81 -14 -52 3 -101 45 -133 56 -43
151 -29 190 27 20 28 21 100 1 137 -25 50 -105 74 -165 50z"/>
<path d="M1815 2240 l0 -50 95 -51 c198 -108 436 -242 460 -259 25 -18 26 -17
53 6 16 13 35 24 43 24 48 0 -9 35 -451 276 -104 57 -192 104 -195 104 -3 0
-5 -22 -5 -50z"/>
<path d="M3070 2187 c-102 -56 -212 -119 -245 -138 -33 -20 -97 -56 -143 -80
l-83 -43 34 -17 c18 -10 39 -24 46 -33 11 -13 19 -11 64 18 59 38 356 204 465
261 51 26 71 42 67 52 -3 8 -5 30 -5 49 0 19 -3 34 -7 33 -5 0 -91 -46 -193
-102z"/>
<path d="M1737 2085 c-15 -14 -35 -25 -43 -25 -21 0 -17 -18 7 -25 11 -4 67
-33 125 -65 84 -47 104 -55 104 -40 0 9 9 29 20 43 l20 25 -100 56 c-55 31
-101 56 -103 56 -1 0 -15 -12 -30 -25z"/>
<path d="M3220 2059 c-52 -28 -96 -52 -98 -54 -4 -4 39 -85 45 -85 8 0 176 92
206 113 l28 19 -33 20 c-18 11 -34 24 -36 29 -6 14 -11 12 -112 -42z"/>
<path d="M2005 1945 c-61 -60 9 -163 76 -112 20 15 39 51 39 72 0 23 -45 65
-70 65 -11 0 -32 -11 -45 -25z"/>
<path d="M2981 1944 c-25 -32 -26 -46 -6 -83 31 -61 116 -41 123 29 7 69 -75
107 -117 54z"/>
<path d="M2165 1874 c-3 -11 -12 -31 -20 -46 -13 -25 -12 -29 8 -43 12 -8 26
-15 32 -15 5 0 42 -21 80 -45 39 -25 71 -41 72 -37 1 4 3 28 6 53 l4 46 -66
39 c-36 21 -76 44 -88 52 -20 13 -23 12 -28 -4z"/>
<path d="M2885 1871 c-6 -5 -39 -25 -75 -44 -40 -22 -63 -41 -60 -49 2 -7 4
-30 3 -50 0 -21 1 -38 2 -38 4 0 57 30 138 77 l57 35 -20 25 c-11 14 -20 32
-20 39 0 16 -12 18 -25 5z"/>
<path d="M2500 1833 c-30 -11 -70 -57 -76 -89 -9 -47 3 -89 36 -124 24 -26 35
-30 80 -30 71 0 104 20 125 74 15 39 16 50 4 88 -22 68 -101 106 -169 81z"/>
</g>
</svg>
